<svg width="152" height="39" viewBox="0 0 152 39" fill="none" xmlns="http://www.w3.org/2000/svg">
<path d="M45.3654 15.4069V25.5989C45.3654 26.0941 45.5324 26.5202 45.8663 26.8772C46.2118 27.2227 46.6322 27.3954 47.1274 27.3954V28H40.0621V27.3954C40.5573 27.3954 40.9719 27.2227 41.3059 26.8772C41.6514 26.5202 41.8241 26.0941 41.8241 25.5989V5.07682C41.8241 4.58162 41.6514 4.15551 41.3059 3.79851C40.9604 3.4415 40.5458 3.263 40.0621 3.263V2.67567H56.6801V6.19966L45.3654 3.263V14.7678L53.0698 13.3167V16.858L45.3654 15.4069ZM62.9508 28C61.5227 28 60.3999 27.5624 59.5822 26.6871C58.7646 25.8119 58.3558 24.4818 58.3558 22.6967V11.9348C58.3558 11.4396 58.183 11.0192 57.8375 10.6737C57.492 10.3167 57.0717 10.1382 56.5765 10.1382V9.53362L61.897 8.99811V23.0077C61.897 23.8369 62.1273 24.499 62.588 24.9942C63.0486 25.4779 63.7108 25.714 64.5746 25.7025C65.565 25.6795 66.6417 25.38 67.8049 24.8042C68.9795 24.2284 69.8836 23.5144 70.517 22.6622V11.9348C70.517 11.4396 70.3442 11.0192 69.9987 10.6737C69.6648 10.3167 69.2502 10.1382 68.755 10.1382V9.53362L74.0582 8.99811V25.0633C74.0582 25.5585 74.231 25.9846 74.5765 26.3417C74.9219 26.6871 75.3423 26.8599 75.8375 26.8599V27.4645L70.517 28V23.3359C69.5957 24.7524 68.4671 25.8868 67.1312 26.739C65.7953 27.5797 64.4018 28 62.9508 28ZM82.4536 14.6987V25.5989C82.4536 26.0941 82.6263 26.5202 82.9718 26.8772C83.3173 27.2227 83.7377 27.3954 84.2329 27.3954V28H77.1503V27.3954C77.6455 27.3954 78.0659 27.2227 78.4114 26.8772C78.7569 26.5202 78.9296 26.0941 78.9296 25.5989V11.9348C78.9296 11.4396 78.7569 11.0192 78.4114 10.6737C78.0659 10.3167 77.6455 10.1382 77.1503 10.1382V9.53362L82.4536 8.99811V13.4895C83.3058 12.2572 84.6417 11.192 86.4613 10.2937C88.2808 9.39543 90.2732 8.96357 92.4382 8.99811V12.5394C91.4248 12.0902 90.3538 11.8657 89.2252 11.8657C87.8317 11.8657 86.4843 12.1651 85.183 12.7639C83.8931 13.3628 82.9833 14.0077 82.4536 14.6987ZM106.344 8.99811C109.131 8.99811 110.525 10.7659 110.525 14.3014V25.5989C110.525 26.0941 110.692 26.5202 111.026 26.8772C111.371 27.2227 111.791 27.3954 112.287 27.3954V28H105.221V27.3954C105.717 27.3954 106.131 27.2227 106.465 26.8772C106.811 26.5202 106.983 26.0941 106.983 25.5989V14.2323C106.983 13.1843 106.793 12.43 106.413 11.9693C106.045 11.4972 105.446 11.2611 104.617 11.2611C102.855 11.2611 100.765 12.24 98.3461 14.1977V25.5989C98.3461 26.0941 98.5188 26.5202 98.8643 26.8772C99.2098 27.2227 99.6301 27.3954 100.125 27.3954V28H93.0428V27.3954C93.538 27.3954 93.9584 27.2227 94.3039 26.8772C94.6494 26.5202 94.8221 26.0941 94.8221 25.5989V11.9348C94.8221 11.4396 94.6494 11.0192 94.3039 10.6737C93.9584 10.3167 93.538 10.1382 93.0428 10.1382V9.53362L98.3461 8.99811V13.6795C99.6474 12.1248 100.978 10.9559 102.336 10.1728C103.707 9.38967 105.043 8.99811 106.344 8.99811Z" fill="#D1A75E"/>
<path d="M115.102 6.3033C114.711 5.92326 114.515 5.42231 114.515 4.80043C114.515 4.17855 114.711 3.67759 115.102 3.29755C115.494 2.906 116.006 2.71022 116.64 2.71022C117.25 2.71022 117.74 2.906 118.108 3.29755C118.488 3.67759 118.678 4.17855 118.678 4.80043C118.678 5.42231 118.488 5.92326 118.108 6.3033C117.74 6.68334 117.25 6.87336 116.64 6.87336C116.006 6.87336 115.494 6.68334 115.102 6.3033ZM118.609 8.99811V25.5989C118.609 26.0941 118.782 26.5202 119.127 26.8772C119.473 27.2227 119.893 27.3954 120.388 27.3954V28H113.306V27.3954C113.801 27.3954 114.221 27.2227 114.567 26.8772C114.912 26.5202 115.085 26.0941 115.085 25.5989V11.9348C115.085 11.4396 114.912 11.0192 114.567 10.6737C114.221 10.3167 113.801 10.1382 113.306 10.1382V9.53362L118.609 8.99811ZM126.607 28C125.536 28 124.753 27.5797 124.258 26.739C123.774 25.8983 123.532 24.5509 123.532 22.6967V10.1382H120.233V9.53362C121.972 9.39543 123.319 8.79658 124.275 7.73708C125.242 6.66607 125.974 4.96741 126.469 2.64112H127.073V9.53362H131.375V10.1382H127.073V23.8541C127.073 25.1094 127.494 25.737 128.335 25.737C128.991 25.737 129.791 25.4146 130.736 24.7697C131.692 24.1248 132.521 23.4223 133.223 22.6622V23.0422C132.256 24.5739 131.208 25.7831 130.079 26.6699C128.951 27.5566 127.793 28 126.607 28ZM132.981 18.6545C132.981 17.7102 133.079 16.7946 133.275 15.9079C133.471 15.0211 133.793 14.1574 134.242 13.3167C134.692 12.4645 135.25 11.7217 135.918 11.0883C136.586 10.4549 137.432 9.94821 138.457 9.56817C139.482 9.18813 140.628 8.99811 141.895 8.99811C143.07 8.99811 144.146 9.19965 145.125 9.60272C146.104 9.99427 146.916 10.5125 147.561 11.1574C148.206 11.8023 148.747 12.5509 149.185 13.4031C149.634 14.2553 149.956 15.1248 150.152 16.0115C150.348 16.8868 150.446 17.7678 150.446 18.6545C150.446 19.5989 150.348 20.5144 150.152 21.4012C149.956 22.2879 149.628 23.1574 149.167 24.0096C148.718 24.8503 148.16 25.5873 147.492 26.2207C146.824 26.8541 145.977 27.3608 144.953 27.7409C143.928 28.1209 142.787 28.3109 141.532 28.3109C140.346 28.3109 139.258 28.1152 138.267 27.7236C137.288 27.3205 136.477 26.7965 135.832 26.1516C135.198 25.5067 134.657 24.7582 134.208 23.906C133.77 23.0538 133.454 22.19 133.258 21.3148C133.073 20.428 132.981 19.5413 132.981 18.6545ZM135.279 18.6891C135.59 19.5873 136.033 20.4626 136.609 21.3148C137.185 22.167 137.858 22.9386 138.63 23.6296C139.402 24.3205 140.288 24.8733 141.29 25.2879C142.304 25.7025 143.34 25.9098 144.4 25.9098C146.242 25.9098 147.492 25.2476 148.148 23.9232C148.805 22.5989 148.816 20.8541 148.183 18.6891C147.86 17.7908 147.411 16.9213 146.835 16.0806C146.271 15.2284 145.603 14.4453 144.832 13.7313C144.072 13.0173 143.185 12.4472 142.171 12.0211C141.158 11.5835 140.11 11.3647 139.027 11.3647C137.991 11.3647 137.133 11.5662 136.454 11.9693C135.786 12.3724 135.325 12.9194 135.072 13.6104C134.818 14.3014 134.709 15.0787 134.743 15.9424C134.778 16.8062 134.956 17.7217 135.279 18.6891Z" fill="#223E3F"/>
<path d="M3.24414 19.0481V10.7263C3.24414 7.88153 3.97018 5.15325 5.26253 3.14167C6.55489 1.13009 8.3077 0 10.1354 0H21.2249C23.0525 0 24.8054 1.13009 26.0977 3.14167C27.3901 5.15325 28.1161 7.88153 28.1161 10.7263V19.0481" fill="url(#paint0_linear_209_5946)"/>
<path d="M30.2386 25.597C30.8802 25.597 31.399 24.8525 31.399 23.9347V10.0971C31.399 9.05089 30.8119 8.19727 30.0747 8.19727H27.9656C27.6165 8.28641 27.3109 8.50448 27.106 8.81055C26.9012 9.11662 26.8112 9.48964 26.8529 9.85958L26.8519 18.4833H4.54706L4.54602 9.85958C4.58777 9.48964 4.49777 9.11662 4.29292 8.81055C4.08806 8.50448 3.78243 8.28641 3.43341 8.19727H1.32422C0.587024 8.19727 0 9.05089 0 10.0971V23.9347C0 24.8525 0.518765 25.597 1.1604 25.597H30.2386Z" fill="#223E3F"/>
<path d="M7.49424 25.5972L6.33111 30.9999H4.45264V25.5972" fill="#223E3F"/>
<path d="M26.9781 25.5972V30.9999H25.0997L23.9365 25.5972" fill="#223E3F"/>
<defs>
<linearGradient id="paint0_linear_209_5946" x1="15.6801" y1="0" x2="15.6801" y2="19.0481" gradientUnits="userSpaceOnUse">
<stop stop-color="#EBBA1D"/>
<stop offset="1" stop-color="#FFDE76"/>
</linearGradient>
</defs>
</svg>
